<?xml version="1.0" encoding="UTF-8" standalone="no"?>
<svg width="27px" height="15px" viewBox="0 0 27 15" version="1.1" xmlns="http://www.w3.org/2000/svg" xmlns:xlink="http://www.w3.org/1999/xlink">
    <!-- Generator: Sketch 42 (36781) - http://www.bohemiancoding.com/sketch -->
    <title>Combined Shape</title>
    <desc>Created with Sketch.</desc>
    <defs></defs>
    <g id="Page-1" stroke="none" stroke-width="1" fill="none" fill-rule="evenodd">
        <g id="iPhone-6" transform="translate(-333.000000, -26.000000)">
            <rect id="Rectangle" fill="#F0F0F0" x="0" y="0" width="375" height="56"></rect>
            <g id="Group-3" transform="translate(333.000000, 26.000000)" fill="#000000">
                <path d="M22.4465331,2.91359212 L22.5956518,2.91359212 C22.5956518,2.91359212 23.6478973,2.91359212 23.6478973,3.97432174 C23.6478973,5.03505137 22.5622324,4.91834214 22.5622324,4.91834214 L18.6022924,5.05636529 L19.8141853,13.8094541 C19.8141853,13.8094541 19.9224103,14.1703422 19.3911143,14.2793949 C18.8598183,14.3884477 18.8598183,13.9331989 18.8598183,13.9331989 L17.5771549,5.05636529 L16.610786,6.53654458 L13.4025237,6.61931709 L13.4025237,2.91359212 L21.859076,2.91359212 L20.3421704,2.86972269 L20.388911,1.834368 L20.9516347,1.75881223 L21.0459953,1.64603469 L21.0459953,0.165182877 L21.1712922,0.0529744021 L21.5996917,0.0534917302 L21.7371458,0.226589728 L21.7360076,1.71721905 L22.3793569,1.834368 L22.4465331,2.91359212 Z M6.43896406,0.456513478 C6.66821745,0.187319006 7.17998489,0.136080424 7.17998489,0.136080424 C7.17998489,0.136080424 8.60074426,0.0398945826 9.50594397,0.191227605 C10.4111437,0.342560627 11.0537344,0.491364705 11.0455125,0.782326744 C11.0372907,1.07328878 10.4968543,1.1817195 9.47361096,1.335454 C9.25432599,1.36839989 9.00086987,1.38041408 8.76412124,1.40461818 C7.17998489,1.56657309 6.51158635,1.22595117 6.41656375,1.03250664 C6.32154114,0.839062105 6.20971066,0.725707949 6.43896406,0.456513478 Z M20.3929983,1.04348208 C20.1637449,1.31267655 19.6519775,1.36391513 19.6519775,1.36391513 C19.6519775,1.36391513 18.2312181,1.46010097 17.3260184,1.30876795 C16.4208187,1.15743493 15.778228,1.00863085 15.7864498,0.71766881 C15.7946717,0.426706772 16.3351081,0.318276056 17.3583514,0.164541557 C17.5776364,0.131595664 17.8310925,0.119581479 18.0678411,0.0953773729 C19.6519775,-0.0665775363 20.320376,0.274044389 20.4153986,0.467488919 C20.5104212,0.660933449 20.6222517,0.774287605 20.3929983,1.04348208 Z M22.3312847,0.403539076 C22.5605381,0.134344604 23.0723055,0.0831060224 23.0723055,0.0831060224 C23.0723055,0.0831060224 24.4930649,-0.0130798195 25.3982646,0.138253203 C26.3034643,0.289586225 26.946055,0.438390303 26.9378332,0.729352342 C26.9296113,1.02031438 26.3891749,1.1287451 25.3659316,1.28247959 C25.1466466,1.31542549 24.8931905,1.32743967 24.6564419,1.35164378 C23.0723055,1.51359869 22.403907,1.17297676 22.3088844,0.979532233 C22.2138618,0.786087703 22.1020313,0.672733547 22.3312847,0.403539076 Z M4.60662647,0.403539076 C4.83587987,0.672733547 4.72404939,0.786087703 4.62902678,0.979532233 C4.53400417,1.17297676 3.86560564,1.51359869 2.28146929,1.35164378 C2.04472066,1.32743967 1.79126454,1.31542549 1.57197957,1.28247959 C0.548736242,1.1287451 0.0082998676,1.02031438 7.79997041e-05,0.729352342 C-0.00814386819,0.438390303 0.634446853,0.289586225 1.53964656,0.138253203 C2.44484627,-0.0130798195 3.86560564,0.0831060224 3.86560564,0.0831060224 C3.86560564,0.0831060224 4.37737308,0.134344604 4.60662647,0.403539076 Z M5.22599719,0 L5.65439663,0.000517328145 L5.79185072,0.173615326 L5.7907126,1.66424464 L6.43406188,1.7813936 L6.50229746,2.87763781 L4.39687537,2.81674829 L4.44361597,1.7813936 L5.00633966,1.70583783 L5.10070032,1.59306029 L5.10070032,0.112208475 L5.22599719,0 Z M13.4025237,2.91359212 L13.4025237,6.61931709 L10.1942615,6.53654458 L9.22789253,5.05636529 L7.94522912,13.9331989 C7.94522912,13.9331989 7.94522912,14.3884477 7.41393312,14.2793949 C6.88263711,14.1703422 6.99086216,13.8094541 6.99086216,13.8094541 L8.20275507,5.05636529 L4.24281505,4.91834214 C4.24281505,4.91834214 3.15715021,5.03505137 3.15715021,3.97432174 C3.15715021,2.91359212 4.20939565,2.91359212 4.20939565,2.91359212 L13.4025237,2.91359212 Z" id="Combined-Shape"></path>
            </g>
        </g>
    </g>
</svg>
