<?xml version="1.0" encoding="utf-8"?>
<!-- Generator: Adobe Illustrator 16.0.0, SVG Export Plug-In . SVG Version: 6.00 Build 0)  -->
<!DOCTYPE svg PUBLIC "-//W3C//DTD SVG 1.1//EN" "http://www.w3.org/Graphics/SVG/1.1/DTD/svg11.dtd">
<svg version="1.1" id="图层_1" xmlns="http://www.w3.org/2000/svg" xmlns:xlink="http://www.w3.org/1999/xlink" x="0px" y="0px"
	 width="400px" height="225px" viewBox="0 0 400 225" enable-background="new 0 0 400 225" xml:space="preserve">
<g>
	<g>
		<linearGradient id="SVGID_1_" gradientUnits="userSpaceOnUse" x1="348.1162" y1="161.8828" x2="348.1162" y2="58.1172">
			<stop  offset="0" style="stop-color:#1A5091"/>
			<stop  offset="0.2078" style="stop-color:#21639D"/>
			<stop  offset="0.6581" style="stop-color:#3993BB"/>
			<stop  offset="1" style="stop-color:#51BBD3"/>
		</linearGradient>
		<path fill="url(#SVGID_1_)" d="M400,157.092c0,2.646-2.146,4.791-4.796,4.791h-94.182c-2.646,0-4.79-2.146-4.79-4.791V62.908
			c0-2.646,2.145-4.791,4.79-4.791h94.182c2.65,0,4.796,2.146,4.796,4.791V157.092z"/>
		<linearGradient id="SVGID_2_" gradientUnits="userSpaceOnUse" x1="348.1162" y1="161.8828" x2="348.1162" y2="58.1172">
			<stop  offset="0" style="stop-color:#1A5091"/>
			<stop  offset="0.2078" style="stop-color:#21639D"/>
			<stop  offset="0.6581" style="stop-color:#3993BB"/>
			<stop  offset="1" style="stop-color:#51BBD3"/>
		</linearGradient>
		<path fill="url(#SVGID_2_)" d="M400,157.092c0,2.646-2.146,4.791-4.796,4.791h-94.182c-2.646,0-4.79-2.146-4.79-4.791V62.908
			c0-2.646,2.145-4.791,4.79-4.791h94.182c2.65,0,4.796,2.146,4.796,4.791V157.092z"/>
	</g>
	<g>
		<path d="M0,76.518c3.965-0.721,9.462-1.262,16.941-1.262c8.11,0,14.058,1.712,17.933,4.956c3.604,2.974,5.947,7.75,5.947,13.427
			c0,5.768-1.802,10.544-5.227,13.788c-4.416,4.415-11.354,6.488-19.194,6.488c-2.072,0-3.965-0.091-5.406-0.36v22.889H0V76.518z
			 M10.994,104.813c1.352,0.36,3.153,0.45,5.406,0.45c8.291,0,13.337-4.055,13.337-11.174c0-6.759-4.686-10.363-12.346-10.363
			c-3.063,0-5.227,0.271-6.397,0.541V104.813z"/>
		<path d="M48.84,106.706c0-5.948-0.09-10.184-0.36-14.148h9.643l0.36,8.381h0.36c2.162-6.218,7.299-9.372,11.985-9.372
			c1.081,0,1.712,0.09,2.613,0.271v10.453c-0.901-0.181-1.893-0.36-3.244-0.36c-5.317,0-8.922,3.424-9.913,8.381
			c-0.18,0.991-0.36,2.162-0.36,3.424v22.709H48.84V106.706z"/>
		<path d="M121.831,114.096c0,16.13-11.354,23.339-22.528,23.339c-12.436,0-21.987-8.561-21.987-22.618
			c0-14.419,9.462-23.25,22.708-23.25C113.09,91.566,121.831,100.758,121.831,114.096z M88.76,114.546
			c0,8.471,4.145,14.869,10.903,14.869c6.309,0,10.724-6.218,10.724-15.05c0-6.849-3.063-14.688-10.633-14.688
			C91.913,99.677,88.76,107.246,88.76,114.546z"/>
		<path d="M163.192,135.092c-2.344,1.081-6.939,2.253-12.437,2.253c-13.697,0-22.618-8.741-22.618-22.349
			c0-13.156,9.012-23.43,24.421-23.43c4.055,0,8.2,0.901,10.724,2.072l-1.982,8.291c-1.803-0.812-4.416-1.712-8.381-1.712
			c-8.471,0-13.518,6.218-13.427,14.238c0,9.011,5.857,14.147,13.427,14.147c3.875,0,6.578-0.811,8.741-1.712L163.192,135.092z"/>
		<path d="M178.42,117.609c0.271,7.931,6.488,11.354,13.518,11.354c5.137,0,8.831-0.721,12.165-1.982l1.622,7.66
			c-3.785,1.531-9.012,2.703-15.319,2.703c-14.238,0-22.618-8.741-22.618-22.168c0-12.166,7.389-23.61,21.447-23.61
			c14.237,0,18.923,11.715,18.923,21.357c0,2.072-0.18,3.694-0.36,4.686H178.42z M197.705,109.859
			c0.09-4.055-1.713-10.724-9.102-10.724c-6.849,0-9.732,6.218-10.184,10.724H197.705z"/>
		<path d="M216.536,126.261c2.523,1.532,7.3,3.154,11.265,3.154c4.866,0,7.028-1.983,7.028-4.866c0-2.974-1.802-4.506-7.209-6.398
			c-8.561-2.974-12.165-7.66-12.075-12.797c0-7.749,6.398-13.787,16.581-13.787c4.866,0,9.102,1.262,11.625,2.613l-2.163,7.84
			c-1.893-1.081-5.406-2.523-9.281-2.523c-3.966,0-6.128,1.893-6.128,4.597c0,2.793,2.072,4.145,7.659,6.127
			c7.931,2.884,11.625,6.939,11.715,13.428c0,7.93-6.218,13.697-17.842,13.697c-5.317,0-10.094-1.262-13.337-3.063L216.536,126.261z
			"/>
		<path d="M254.112,126.261c2.523,1.532,7.299,3.154,11.264,3.154c4.866,0,7.029-1.983,7.029-4.866c0-2.974-1.803-4.506-7.209-6.398
			c-8.561-2.974-12.166-7.66-12.075-12.797c0-7.749,6.397-13.787,16.58-13.787c4.866,0,9.102,1.262,11.625,2.613l-2.162,7.84
			c-1.893-1.081-5.407-2.523-9.282-2.523c-3.965,0-6.128,1.893-6.128,4.597c0,2.793,2.073,4.145,7.66,6.127
			c7.93,2.884,11.625,6.939,11.715,13.428c0,7.93-6.219,13.697-17.843,13.697c-5.316,0-10.093-1.262-13.337-3.063L254.112,126.261z"
			/>
	</g>
	<g>
		<path fill="#FFFFFF" d="M352.144,105.969c0,18.032-10.931,28.324-25.772,28.324c-15.159,0-24.733-11.568-24.733-27.367
			c0-16.516,10.372-28.165,25.532-28.165C342.889,78.761,352.144,90.649,352.144,105.969z M312.01,106.767
			c0,10.931,5.506,19.628,14.921,19.628c9.494,0,14.84-8.776,14.84-20.027c0-10.133-5.026-19.708-14.84-19.708
			C317.196,86.659,312.01,95.676,312.01,106.767z"/>
		<path fill="#FFFFFF" d="M358.765,106.128c0-4.468-0.079-8.219-0.318-11.569h8.616l0.479,5.825h0.239
			c1.676-3.032,5.904-6.703,12.367-6.703c6.781,0,13.803,4.389,13.803,16.676v23.06h-9.813v-21.942c0-5.585-2.074-9.813-7.42-9.813
			c-3.91,0-6.623,2.792-7.66,5.744c-0.319,0.878-0.398,2.075-0.398,3.192v22.819h-9.895V106.128z"/>
	</g>
</g>
</svg>
